# xmcd
#
# Track frame offsets: 
#        150
#        12062
#        22474
#        35139
#        51393
#        62103
#        79714
#        95181
#        108666
#        123672
#        155628
#        171375
#        186266
#
# Disc length: 2672 seconds
#
# Revision: 0
# Processed by: cddbd v1.5.2PL0 Copyright (c) Steve Scherf et al.
# Submitted via: ExactAudioCopy v0.99pb4
#
DISCID=c30a6e0d
DTITLE=Robert Jan Stips - Rond
DYEAR=2009
DGENRE=Pop
TTITLE0=United States Of Mind
TTITLE1=She Was Naked
TTITLE2=Dankzij De Duinen
TTITLE3=Like A Sinking Stone
TTITLE4=Twilight Zone
TTITLE5=Una Paloma Blanca
TTITLE6=Days Of The Privet
TTITLE7=Psychopath
TTITLE8=Memories Are New III
TTITLE9=Wash Your Hands (Before You Toch Me)
TTITLE10=The House
TTITLE11=Radio
TTITLE12=The River
EXTD=
EXTT0=
EXTT1=
EXTT2=
EXTT3=
EXTT4=
EXTT5=
EXTT6=
EXTT7=
EXTT8=
EXTT9=
EXTT10=
EXTT11=
EXTT12=
PLAYORDER=
